<?xml version="1.0" encoding="UTF-8" standalone="no"?>
<!-- Created with Inkscape (http://www.inkscape.org/) -->

<svg
   xmlns:ns0="http://www.iki.fi/pav/software/textext/"
   xmlns:osb="http://www.openswatchbook.org/uri/2009/osb"
   xmlns:dc="http://purl.org/dc/elements/1.1/"
   xmlns:cc="http://creativecommons.org/ns#"
   xmlns:rdf="http://www.w3.org/1999/02/22-rdf-syntax-ns#"
   xmlns:svg="http://www.w3.org/2000/svg"
   xmlns="http://www.w3.org/2000/svg"
   xmlns:xlink="http://www.w3.org/1999/xlink"
   xmlns:sodipodi="http://sodipodi.sourceforge.net/DTD/sodipodi-0.dtd"
   xmlns:inkscape="http://www.inkscape.org/namespaces/inkscape"
   width="210mm"
   height="297mm"
   id="svg2"
   version="1.1"
   inkscape:version="0.48.4 r9939"
   sodipodi:docname="flot_2.svg">
  <sodipodi:namedview
     id="base"
     pagecolor="#ffffff"
     bordercolor="#666666"
     borderopacity="1.0"
     inkscape:pageopacity="0.0"
     inkscape:pageshadow="2"
     inkscape:zoom="1.4"
     inkscape:cx="442.99581"
     inkscape:cy="658.82979"
     inkscape:document-units="px"
     inkscape:current-layer="layer1"
     showgrid="false"
     inkscape:window-width="1920"
     inkscape:window-height="1015"
     inkscape:window-x="0"
     inkscape:window-y="35"
     inkscape:window-maximized="1" />
  <defs
     id="defs4">
    <linearGradient
       id="linearGradient5824"
       osb:paint="solid">
      <stop
         style="stop-color:#993d71;stop-opacity:1;"
         offset="0"
         id="stop5826" />
    </linearGradient>
    <marker
       inkscape:stockid="Arrow1Mend"
       orient="auto"
       refY="0.0"
       refX="0.0"
       id="Arrow1Mend"
       style="overflow:visible;">
      <path
         id="path3768"
         d="M 0.0,0.0 L 5.0,-5.0 L -12.5,0.0 L 5.0,5.0 L 0.0,0.0 z "
         style="fill-rule:evenodd;stroke:#000000;stroke-width:1.0pt;"
         transform="scale(0.4) rotate(180) translate(10,0)" />
    </marker>
    <marker
       inkscape:stockid="Arrow1Mstart"
       orient="auto"
       refY="0.0"
       refX="0.0"
       id="Arrow1Mstart"
       style="overflow:visible">
      <path
         id="path3765"
         d="M 0.0,0.0 L 5.0,-5.0 L -12.5,0.0 L 5.0,5.0 L 0.0,0.0 z "
         style="fill-rule:evenodd;stroke:#000000;stroke-width:1.0pt"
         transform="scale(0.4) translate(10,0)" />
    </marker>
    <marker
       inkscape:stockid="Arrow1Lstart"
       orient="auto"
       refY="0.0"
       refX="0.0"
       id="Arrow1Lstart"
       style="overflow:visible">
      <path
         id="path3759"
         d="M 0.0,0.0 L 5.0,-5.0 L -12.5,0.0 L 5.0,5.0 L 0.0,0.0 z "
         style="fill-rule:evenodd;stroke:#000000;stroke-width:1.0pt"
         transform="scale(0.8) translate(12.5,0)" />
    </marker>
    <marker
       inkscape:stockid="Arrow1Lend"
       orient="auto"
       refY="0.0"
       refX="0.0"
       id="Arrow1Lend"
       style="overflow:visible;">
      <path
         id="path3762"
         d="M 0.0,0.0 L 5.0,-5.0 L -12.5,0.0 L 5.0,5.0 L 0.0,0.0 z "
         style="fill-rule:evenodd;stroke:#000000;stroke-width:1.0pt;"
         transform="scale(0.8) rotate(180) translate(12.5,0)" />
    </marker>
    <marker
       inkscape:stockid="Arrow1Mendm"
       orient="auto"
       refY="0.0"
       refX="0.0"
       id="Arrow1Mendm"
       style="overflow:visible;">
      <path
         id="path5843"
         d="M 0.0,0.0 L 5.0,-5.0 L -12.5,0.0 L 5.0,5.0 L 0.0,0.0 z "
         style="stroke:#993d71;stroke-width:1.0pt;fill:#993d71;fill-rule:evenodd"
         transform="scale(0.4) rotate(180) translate(10,0)" />
    </marker>
    <marker
       inkscape:stockid="Arrow1Mendm"
       orient="auto"
       refY="0"
       refX="0"
       id="Arrow1Mendm-3"
       style="overflow:visible">
      <path
         id="path5843-4"
         d="M 0,0 5,-5 -12.5,0 5,5 0,0 z"
         style="fill:#993d71;fill-rule:evenodd;stroke:#993d71;stroke-width:1pt"
         transform="matrix(-0.4,0,0,-0.4,-4,0)"
         inkscape:connector-curvature="0" />
    </marker>
    <marker
       inkscape:stockid="Arrow1Mendm"
       orient="auto"
       refY="0"
       refX="0"
       id="Arrow1Mendm-8"
       style="overflow:visible">
      <path
         id="path5843-3"
         d="M 0,0 5,-5 -12.5,0 5,5 0,0 z"
         style="fill:#993d71;fill-rule:evenodd;stroke:#993d71;stroke-width:1pt"
         transform="matrix(-0.4,0,0,-0.4,-4,0)"
         inkscape:connector-curvature="0" />
    </marker>
    <marker
       inkscape:stockid="Arrow1Mendm"
       orient="auto"
       refY="0"
       refX="0"
       id="Arrow1Mendm-1"
       style="overflow:visible">
      <path
         id="path5843-7"
         d="M 0,0 5,-5 -12.5,0 5,5 0,0 z"
         style="fill:#993d71;fill-rule:evenodd;stroke:#993d71;stroke-width:1pt"
         transform="matrix(-0.4,0,0,-0.4,-4,0)"
         inkscape:connector-curvature="0" />
    </marker>
    <marker
       inkscape:stockid="Arrow1Mendm"
       orient="auto"
       refY="0"
       refX="0"
       id="Arrow1Mendm-2"
       style="overflow:visible">
      <path
         id="path5843-6"
         d="M 0,0 5,-5 -12.5,0 5,5 0,0 z"
         style="fill:#993d71;fill-rule:evenodd;stroke:#993d71;stroke-width:1pt"
         transform="matrix(-0.4,0,0,-0.4,-4,0)"
         inkscape:connector-curvature="0" />
    </marker>
    <marker
       inkscape:stockid="Arrow1Mendm"
       orient="auto"
       refY="0"
       refX="0"
       id="marker5948"
       style="overflow:visible">
      <path
         id="path5950"
         d="M 0,0 5,-5 -12.5,0 5,5 0,0 z"
         style="fill:#993d71;fill-rule:evenodd;stroke:#993d71;stroke-width:1pt"
         transform="matrix(-0.4,0,0,-0.4,-4,0)"
         inkscape:connector-curvature="0" />
    </marker>
    <marker
       inkscape:stockid="Arrow1Mendm"
       orient="auto"
       refY="0"
       refX="0"
       id="marker5952"
       style="overflow:visible">
      <path
         id="path5954"
         d="M 0,0 5,-5 -12.5,0 5,5 0,0 z"
         style="fill:#993d71;fill-rule:evenodd;stroke:#993d71;stroke-width:1pt"
         transform="matrix(-0.4,0,0,-0.4,-4,0)"
         inkscape:connector-curvature="0" />
    </marker>
    <marker
       inkscape:stockid="Arrow1Mendm"
       orient="auto"
       refY="0"
       refX="0"
       id="marker5956"
       style="overflow:visible">
      <path
         id="path5958"
         d="M 0,0 5,-5 -12.5,0 5,5 0,0 z"
         style="fill:#993d71;fill-rule:evenodd;stroke:#993d71;stroke-width:1pt"
         transform="matrix(-0.4,0,0,-0.4,-4,0)"
         inkscape:connector-curvature="0" />
    </marker>
    <marker
       inkscape:stockid="Arrow1Mendm"
       orient="auto"
       refY="0"
       refX="0"
       id="Arrow1Mendm-80"
       style="overflow:visible">
      <path
         id="path5843-9"
         d="M 0,0 5,-5 -12.5,0 5,5 0,0 z"
         style="fill:#993d71;fill-rule:evenodd;stroke:#993d71;stroke-width:1pt"
         transform="matrix(-0.4,0,0,-0.4,-4,0)"
         inkscape:connector-curvature="0" />
    </marker>
    <marker
       inkscape:stockid="Arrow1Mendm"
       orient="auto"
       refY="0"
       refX="0"
       id="marker5948-5"
       style="overflow:visible">
      <path
         id="path5950-0"
         d="M 0,0 5,-5 -12.5,0 5,5 0,0 z"
         style="fill:#993d71;fill-rule:evenodd;stroke:#993d71;stroke-width:1pt"
         transform="matrix(-0.4,0,0,-0.4,-4,0)"
         inkscape:connector-curvature="0" />
    </marker>
    <marker
       inkscape:stockid="Arrow1Mendm"
       orient="auto"
       refY="0"
       refX="0"
       id="marker5952-9"
       style="overflow:visible">
      <path
         id="path5954-2"
         d="M 0,0 5,-5 -12.5,0 5,5 0,0 z"
         style="fill:#993d71;fill-rule:evenodd;stroke:#993d71;stroke-width:1pt"
         transform="matrix(-0.4,0,0,-0.4,-4,0)"
         inkscape:connector-curvature="0" />
    </marker>
    <marker
       inkscape:stockid="Arrow1Mendm"
       orient="auto"
       refY="0"
       refX="0"
       id="marker5956-9"
       style="overflow:visible">
      <path
         id="path5958-1"
         d="M 0,0 5,-5 -12.5,0 5,5 0,0 z"
         style="fill:#993d71;fill-rule:evenodd;stroke:#993d71;stroke-width:1pt"
         transform="matrix(-0.4,0,0,-0.4,-4,0)"
         inkscape:connector-curvature="0" />
    </marker>
    <marker
       inkscape:stockid="Arrow1Mendi"
       orient="auto"
       refY="0.0"
       refX="0.0"
       id="Arrow1Mendi"
       style="overflow:visible;">
      <path
         id="path6890"
         d="M 0.0,0.0 L 5.0,-5.0 L -12.5,0.0 L 5.0,5.0 L 0.0,0.0 z "
         style="stroke:#998b3d;stroke-width:1.0pt;fill:#998b3d;fill-rule:evenodd"
         transform="scale(0.4) rotate(180) translate(10,0)" />
    </marker>
  </defs>
  <metadata
     id="metadata7">
    <rdf:RDF>
      <cc:Work
         rdf:about="">
        <dc:format>image/svg+xml</dc:format>
        <dc:type
           rdf:resource="http://purl.org/dc/dcmitype/StillImage" />
        <dc:title></dc:title>
      </cc:Work>
    </rdf:RDF>
  </metadata>
  <g
     inkscape:label="Calque 1"
     inkscape:groupmode="layer"
     id="layer1">
    <path
       style="fill:none;stroke:#000000;stroke-width:1px;stroke-linecap:butt;stroke-linejoin:miter;stroke-opacity:1;marker-start:url(#Arrow1Mstart);marker-end:url(#Arrow1Mend)"
       d="m 678.57143,471.6479 -553.57143,0 0,-321.42858"
       id="path2985"
       inkscape:connector-curvature="0" />
    <path
       style="fill:none;stroke:#3f3d99;stroke-width:1px;stroke-linecap:butt;stroke-linejoin:miter;stroke-opacity:1"
       d="M 48.789567,513.24531 C 197.12908,289.28891 545.12193,200.14007 650.17779,185.99793"
       id="path2991"
       inkscape:connector-curvature="0"
       sodipodi:nodetypes="cc" />
    <path
       style="fill:none;stroke:#000000;stroke-width:1px;stroke-linecap:butt;stroke-linejoin:miter;stroke-opacity:1"
       d="m 124.98405,520.62848 0,-48.9924 -48.739854,0"
       id="path3785"
       inkscape:connector-curvature="0" />
    <path
       sodipodi:type="arc"
       style="fill:#3f3d99;fill-opacity:1;stroke:#3f3d99;stroke-width:2.26300001;stroke-linejoin:round;stroke-miterlimit:4;stroke-opacity:1;stroke-dasharray:none"
       id="path3787"
       sodipodi:cx="219.28571"
       sodipodi:cy="253.43361"
       sodipodi:rx="7.2691259"
       sodipodi:ry="7.4170594"
       d="m 226.55483,253.43361 a 7.2691259,7.4170594 0 1 1 -14.53825,0 7.2691259,7.4170594 0 1 1 14.53825,0 z"
       transform="matrix(0.42168081,0,0,0.41619126,124.10235,82.233702)" />
    <path
       style="fill:none;stroke:#993d71;stroke-width:1px;stroke-linecap:butt;stroke-linejoin:miter;stroke-opacity:1;marker-start:none;marker-mid:none;marker-end:url(#Arrow1Mendm)"
       d="m 223.35658,144.43446 -5.36349,33.92381"
       id="path3814"
       inkscape:connector-curvature="0" />
    <path
       style="fill:none;stroke:#993d71;stroke-width:1px;stroke-linecap:butt;stroke-linejoin:miter;stroke-opacity:1;marker-start:none;marker-mid:none;marker-end:url(#Arrow1Mendm)"
       d="m 209.85728,230.52722 5.36349,-33.92381"
       id="path3814-8"
       inkscape:connector-curvature="0" />
    <path
       style="fill:none;stroke:#993d71;stroke-width:1px;stroke-linecap:butt;stroke-linejoin:miter;stroke-opacity:1;marker-start:none;marker-mid:none;marker-end:url(#Arrow1Mendm)"
       d="m 173.63786,187.65311 34.34519,0"
       id="path3814-8-2"
       inkscape:connector-curvature="0" />
    <path
       style="fill:none;stroke:#993d71;stroke-width:1px;stroke-linecap:butt;stroke-linejoin:miter;stroke-opacity:1;marker-start:none;marker-mid:none;marker-end:url(#Arrow1Mendm)"
       d="m 259.47357,187.81937 -34.34519,0"
       id="path3814-8-5"
       inkscape:connector-curvature="0" />
    <path
       sodipodi:type="arc"
       style="fill:#3f3d99;fill-opacity:1;stroke:#3f3d99;stroke-width:2.26300001;stroke-linejoin:round;stroke-miterlimit:4;stroke-opacity:1;stroke-dasharray:none"
       id="path3787-12"
       sodipodi:cx="219.28571"
       sodipodi:cy="253.43361"
       sodipodi:rx="7.2691259"
       sodipodi:ry="7.4170594"
       d="m 226.55483,253.43361 a 7.2691259,7.4170594 0 1 1 -14.53825,0 7.2691259,7.4170594 0 1 1 14.53825,0 z"
       transform="matrix(0.42168081,0,0,0.41619126,475.75744,292.03112)" />
    <path
       style="fill:none;stroke:#993d71;stroke-width:1px;stroke-linecap:butt;stroke-linejoin:miter;stroke-opacity:1;marker-start:none;marker-mid:none;marker-end:url(#Arrow1Mendm)"
       d="m 559.51756,354.5924 6.84984,33.65519"
       id="path3814-9"
       inkscape:connector-curvature="0" />
    <path
       style="fill:none;stroke:#993d71;stroke-width:1px;stroke-linecap:butt;stroke-linejoin:miter;stroke-opacity:1;marker-start:none;marker-mid:none;marker-end:url(#Arrow1Mendm)"
       d="m 577.00648,439.96412 -6.84984,-33.65519"
       id="path3814-8-9"
       inkscape:connector-curvature="0" />
    <path
       style="fill:none;stroke:#993d71;stroke-width:1px;stroke-linecap:butt;stroke-linejoin:miter;stroke-opacity:1;marker-start:none;marker-mid:none;marker-end:url(#Arrow1Mendm)"
       d="m 525.78267,403.99915 33.94314,-5.23978"
       id="path3814-8-2-1"
       inkscape:connector-curvature="0" />
    <path
       style="fill:none;stroke:#993d71;stroke-width:1px;stroke-linecap:butt;stroke-linejoin:miter;stroke-opacity:1;marker-start:none;marker-mid:none;marker-end:url(#Arrow1Mendm)"
       d="m 610.63894,391.06817 -33.94314,5.23978"
       id="path3814-8-5-2"
       inkscape:connector-curvature="0" />
    <path
       sodipodi:type="arc"
       style="fill:#3f3d99;fill-opacity:1;stroke:#3f3d99;stroke-width:2.26300001;stroke-linejoin:round;stroke-miterlimit:4;stroke-opacity:1;stroke-dasharray:none"
       id="path3787-3"
       sodipodi:cx="219.28571"
       sodipodi:cy="253.43361"
       sodipodi:rx="7.2691259"
       sodipodi:ry="7.4170594"
       d="m 226.55483,253.43361 a 7.2691259,7.4170594 0 1 1 -14.53825,0 7.2691259,7.4170594 0 1 1 14.53825,0 z"
       transform="matrix(0.39327641,-0.15214589,0.15016522,0.38815663,288.24098,186.63137)" />
    <path
       style="fill:none;stroke:#993d71;stroke-width:1px;stroke-linecap:butt;stroke-linejoin:miter;stroke-opacity:1;marker-start:none;marker-mid:none;marker-end:url(#Arrow1Mendm)"
       d="m 413.97846,242.99067 6.76625,-33.6721"
       id="path3814-97"
       inkscape:connector-curvature="0" />
    <path
       style="fill:none;stroke:#993d71;stroke-width:1px;stroke-linecap:butt;stroke-linejoin:miter;stroke-opacity:1;marker-start:none;marker-mid:none;marker-end:url(#Arrow1Mendm)"
       d="m 410.99852,259.83465 -6.76625,33.6721"
       id="path3814-8-8"
       inkscape:connector-curvature="0" />
    <path
       style="fill:none;stroke:#993d71;stroke-width:1px;stroke-linecap:butt;stroke-linejoin:miter;stroke-opacity:1;marker-start:none;marker-mid:none;marker-end:url(#Arrow1Mendm)"
       d="m 372.47597,267.07692 32.0317,-12.39203"
       id="path3814-8-2-7"
       inkscape:connector-curvature="0" />
    <path
       style="fill:none;stroke:#993d71;stroke-width:1px;stroke-linecap:butt;stroke-linejoin:miter;stroke-opacity:1;marker-start:none;marker-mid:none;marker-end:url(#Arrow1Mendm)"
       d="m 452.58978,236.26175 -32.0317,12.39203"
       id="path3814-8-5-0"
       inkscape:connector-curvature="0" />
    <g
       id="g6084"
       ns0:preamble=""
       ns0:text="$\\kappa_1$"
       transform="matrix(2.3087975,0,0,2.3696396,162.94087,174.50381)">
      <defs
         id="defs6086">
        <g
           id="g6088">
          <symbol
             id="textext-a39f07d4-0"
             overflow="visible"
             style="overflow:visible">
            <path
               id="path6091"
               d=""
               style="stroke:none"
               inkscape:connector-curvature="0" />
          </symbol>
          <symbol
             id="textext-a39f07d4-1"
             overflow="visible"
             style="overflow:visible">
            <path
               id="path6094"
               d="M 0.59375,-0.390625 C 0.546875,-0.25 0.546875,-0.234375 0.546875,-0.15625 c 0,0.171875 0.140625,0.265625 0.296875,0.265625 0.296875,0 0.359375,-0.234375 0.4375,-0.5625 C 1.375,-0.8125 1.3125,-0.625 1.75,-2.296875 c 0.828125,0.03125 1.703125,0.203125 1.703125,0.84375 0,0.078125 0,0.125 -0.03125,0.234375 C 3.390625,-1.0625 3.375,-0.953125 3.375,-0.875 c 0,0.578125 0.40625,0.984375 0.921875,0.984375 0.3125,0 0.578125,-0.171875 0.78125,-0.515625 0.25,-0.421875 0.359375,-1 0.359375,-1.015625 0,-0.109375 -0.078125,-0.109375 -0.109375,-0.109375 -0.109375,0 -0.109375,0.046875 -0.140625,0.1875 C 5,-0.65625 4.765625,-0.109375 4.3125,-0.109375 4.109375,-0.109375 4,-0.234375 4,-0.59375 4,-0.734375 4.03125,-0.984375 4.078125,-1.140625 4.09375,-1.234375 4.125,-1.359375 4.125,-1.46875 4.125,-2.40625 2.75,-2.484375 2.1875,-2.5 c 0.328125,-0.1875 0.65625,-0.453125 0.921875,-0.6875 0.453125,-0.375 0.75,-0.625 1.140625,-0.796875 -0.015625,0.0625 -0.046875,0.171875 -0.046875,0.21875 0,0.125 0.078125,0.359375 0.375,0.359375 0.328125,0 0.546875,-0.296875 0.546875,-0.546875 0,-0.078125 -0.046875,-0.34375 -0.40625,-0.34375 -0.609375,0 -1.1875,0.5 -1.625,0.875 -0.6875,0.578125 -0.921875,0.71875 -1.28125,0.84375 C 1.84375,-2.6875 1.96875,-3.1875 2.015625,-3.359375 2.078125,-3.625 2.1875,-4.09375 2.1875,-4.140625 2.1875,-4.3125 2.078125,-4.40625 1.90625,-4.40625 c -0.03125,0 -0.3125,0 -0.40625,0.359375 z"
               style="stroke:none"
               inkscape:connector-curvature="0" />
          </symbol>
          <symbol
             id="textext-a39f07d4-2"
             overflow="visible"
             style="overflow:visible">
            <path
               id="path6097"
               d=""
               style="stroke:none"
               inkscape:connector-curvature="0" />
          </symbol>
          <symbol
             id="textext-a39f07d4-3"
             overflow="visible"
             style="overflow:visible">
            <path
               id="path6100"
               d="m 2.328125,-4.4375 c 0,-0.1875 0,-0.1875 -0.203125,-0.1875 -0.453125,0.4375 -1.078125,0.4375 -1.359375,0.4375 l 0,0.25 c 0.15625,0 0.625,0 1,-0.1875 l 0,3.546875 c 0,0.234375 0,0.328125 -0.6875,0.328125 l -0.265625,0 0,0.25 c 0.125,0 0.984375,-0.03125 1.234375,-0.03125 0.21875,0 1.09375,0.03125 1.25,0.03125 l 0,-0.25 -0.265625,0 c -0.703125,0 -0.703125,-0.09375 -0.703125,-0.328125 z"
               style="stroke:none"
               inkscape:connector-curvature="0" />
          </symbol>
        </g>
      </defs>
      <g
         id="textext-a39f07d4-4">
        <g
           id="g6103"
           style="fill:#000000;fill-opacity:1">
          <use
             id="use6105"
             y="134.765"
             x="223.43201"
             xlink:href="#textext-a39f07d4-1"
             width="744.09448"
             height="1052.3622" />
        </g>
        <g
           id="g6107"
           style="fill:#000000;fill-opacity:1">
          <use
             id="use6109"
             y="136.259"
             x="229.172"
             xlink:href="#textext-a39f07d4-3"
             width="744.09448"
             height="1052.3622" />
        </g>
      </g>
    </g>
    <g
       transform="matrix(2.5020795,0,0,2.6325305,-469.01444,-202.89168)"
       ns0:text="$\\kappa_2$"
       ns0:preamble=""
       id="g6255">
      <defs
         id="defs6257">
        <g
           id="g6259">
          <symbol
             style="overflow:visible"
             overflow="visible"
             id="textext-0b68e355-0">
            <path
               inkscape:connector-curvature="0"
               style="stroke:none"
               d=""
               id="path6262" />
          </symbol>
          <symbol
             style="overflow:visible"
             overflow="visible"
             id="textext-0b68e355-1">
            <path
               inkscape:connector-curvature="0"
               style="stroke:none"
               d="M 0.59375,-0.390625 C 0.546875,-0.25 0.546875,-0.234375 0.546875,-0.15625 c 0,0.171875 0.140625,0.265625 0.296875,0.265625 0.296875,0 0.359375,-0.234375 0.4375,-0.5625 C 1.375,-0.8125 1.3125,-0.625 1.75,-2.296875 c 0.828125,0.03125 1.703125,0.203125 1.703125,0.84375 0,0.078125 0,0.125 -0.03125,0.234375 C 3.390625,-1.0625 3.375,-0.953125 3.375,-0.875 c 0,0.578125 0.40625,0.984375 0.921875,0.984375 0.3125,0 0.578125,-0.171875 0.78125,-0.515625 0.25,-0.421875 0.359375,-1 0.359375,-1.015625 0,-0.109375 -0.078125,-0.109375 -0.109375,-0.109375 -0.109375,0 -0.109375,0.046875 -0.140625,0.1875 C 5,-0.65625 4.765625,-0.109375 4.3125,-0.109375 4.109375,-0.109375 4,-0.234375 4,-0.59375 4,-0.734375 4.03125,-0.984375 4.078125,-1.140625 4.09375,-1.234375 4.125,-1.359375 4.125,-1.46875 4.125,-2.40625 2.75,-2.484375 2.1875,-2.5 c 0.328125,-0.1875 0.65625,-0.453125 0.921875,-0.6875 0.453125,-0.375 0.75,-0.625 1.140625,-0.796875 -0.015625,0.0625 -0.046875,0.171875 -0.046875,0.21875 0,0.125 0.078125,0.359375 0.375,0.359375 0.328125,0 0.546875,-0.296875 0.546875,-0.546875 0,-0.078125 -0.046875,-0.34375 -0.40625,-0.34375 -0.609375,0 -1.1875,0.5 -1.625,0.875 -0.6875,0.578125 -0.921875,0.71875 -1.28125,0.84375 C 1.84375,-2.6875 1.96875,-3.1875 2.015625,-3.359375 2.078125,-3.625 2.1875,-4.09375 2.1875,-4.140625 2.1875,-4.3125 2.078125,-4.40625 1.90625,-4.40625 c -0.03125,0 -0.3125,0 -0.40625,0.359375 z"
               id="path6265" />
          </symbol>
          <symbol
             style="overflow:visible"
             overflow="visible"
             id="textext-0b68e355-2">
            <path
               inkscape:connector-curvature="0"
               style="stroke:none"
               d=""
               id="path6268" />
          </symbol>
          <symbol
             style="overflow:visible"
             overflow="visible"
             id="textext-0b68e355-3">
            <path
               inkscape:connector-curvature="0"
               style="stroke:none"
               d="m 3.515625,-1.265625 -0.234375,0 c -0.015625,0.15625 -0.09375,0.5625 -0.1875,0.625 -0.046875,0.046875 -0.578125,0.046875 -0.6875,0.046875 l -1.28125,0 c 0.734375,-0.640625 0.984375,-0.84375 1.390625,-1.171875 0.515625,-0.40625 1,-0.84375 1,-1.5 0,-0.84375 -0.734375,-1.359375 -1.625,-1.359375 -0.859375,0 -1.453125,0.609375 -1.453125,1.25 0,0.34375 0.296875,0.390625 0.375,0.390625 0.15625,0 0.359375,-0.125 0.359375,-0.375 0,-0.125 -0.046875,-0.375 -0.40625,-0.375 C 0.984375,-4.21875 1.453125,-4.375 1.78125,-4.375 c 0.703125,0 1.0625,0.546875 1.0625,1.109375 0,0.609375 -0.4375,1.078125 -0.65625,1.328125 L 0.515625,-0.265625 C 0.4375,-0.203125 0.4375,-0.1875 0.4375,0 l 2.875,0 z"
               id="path6271" />
          </symbol>
        </g>
      </defs>
      <g
         id="textext-0b68e355-4">
        <g
           style="fill:#000000;fill-opacity:1"
           id="g6274">
          <use
             height="1052.3622"
             width="744.09448"
             xlink:href="#textext-0b68e355-1"
             x="223.43201"
             y="134.765"
             id="use6276" />
        </g>
        <g
           style="fill:#000000;fill-opacity:1"
           id="g6278">
          <use
             height="1052.3622"
             width="744.09448"
             xlink:href="#textext-0b68e355-3"
             x="229.172"
             y="136.259"
             id="use6280" />
        </g>
      </g>
    </g>
    <path
       sodipodi:nodetypes="ccc"
       inkscape:connector-curvature="0"
       id="path6426"
       d="m 275.77164,309.90007 c 49.4163,-25.12026 107.95386,-52.62015 122.88147,-69.52721 14.93064,-16.96804 22.90874,-59.09888 26.11603,-86.03628"
       style="stroke-linejoin:miter;stroke-opacity:1;stroke-dashoffset:0;stroke:#998b3d;stroke-linecap:butt;stroke-miterlimit:4;stroke-dasharray:3, 3;stroke-width:1;marker-mid:url(#Arrow1Mendi);fill:none" />
    <path
       sodipodi:type="arc"
       style="fill:#998b3d;fill-opacity:1;stroke:#998b3d;stroke-width:1;stroke-linejoin:round;stroke-miterlimit:4;stroke-opacity:1;stroke-dasharray:none;stroke-dashoffset:0"
       id="path7035"
       sodipodi:cx="275.7085"
       sodipodi:cy="310.27887"
       sodipodi:rx="2.2097087"
       sodipodi:ry="2.3991122"
       d="m 277.9182,310.27887 a 2.2097087,2.3991122 0 1 1 -0.002,-0.0991"
       sodipodi:start="0"
       sodipodi:end="6.2418492"
       sodipodi:open="true"
       transform="matrix(0.88510199,0,0,0.86785705,31.615233,40.748625)" />
    <g
       transform="matrix(2.7899063,0,0,2.8259352,-381.03862,-79.628505)"
       ns0:text="$\\kappa_i$"
       ns0:preamble=""
       id="g7130">
      <defs
         id="defs7132">
        <g
           id="g7134">
          <symbol
             style="overflow:visible"
             overflow="visible"
             id="textext-41221897-0">
            <path
               inkscape:connector-curvature="0"
               style="stroke:none"
               d=""
               id="path7137" />
          </symbol>
          <symbol
             style="overflow:visible"
             overflow="visible"
             id="textext-41221897-1">
            <path
               inkscape:connector-curvature="0"
               style="stroke:none"
               d="M 0.59375,-0.390625 C 0.546875,-0.25 0.546875,-0.234375 0.546875,-0.15625 c 0,0.171875 0.140625,0.265625 0.296875,0.265625 0.296875,0 0.359375,-0.234375 0.4375,-0.5625 C 1.375,-0.8125 1.3125,-0.625 1.75,-2.296875 c 0.828125,0.03125 1.703125,0.203125 1.703125,0.84375 0,0.078125 0,0.125 -0.03125,0.234375 C 3.390625,-1.0625 3.375,-0.953125 3.375,-0.875 c 0,0.578125 0.40625,0.984375 0.921875,0.984375 0.3125,0 0.578125,-0.171875 0.78125,-0.515625 0.25,-0.421875 0.359375,-1 0.359375,-1.015625 0,-0.109375 -0.078125,-0.109375 -0.109375,-0.109375 -0.109375,0 -0.109375,0.046875 -0.140625,0.1875 C 5,-0.65625 4.765625,-0.109375 4.3125,-0.109375 4.109375,-0.109375 4,-0.234375 4,-0.59375 4,-0.734375 4.03125,-0.984375 4.078125,-1.140625 4.09375,-1.234375 4.125,-1.359375 4.125,-1.46875 4.125,-2.40625 2.75,-2.484375 2.1875,-2.5 c 0.328125,-0.1875 0.65625,-0.453125 0.921875,-0.6875 0.453125,-0.375 0.75,-0.625 1.140625,-0.796875 -0.015625,0.0625 -0.046875,0.171875 -0.046875,0.21875 0,0.125 0.078125,0.359375 0.375,0.359375 0.328125,0 0.546875,-0.296875 0.546875,-0.546875 0,-0.078125 -0.046875,-0.34375 -0.40625,-0.34375 -0.609375,0 -1.1875,0.5 -1.625,0.875 -0.6875,0.578125 -0.921875,0.71875 -1.28125,0.84375 C 1.84375,-2.6875 1.96875,-3.1875 2.015625,-3.359375 2.078125,-3.625 2.1875,-4.09375 2.1875,-4.140625 2.1875,-4.3125 2.078125,-4.40625 1.90625,-4.40625 c -0.03125,0 -0.3125,0 -0.40625,0.359375 z"
               id="path7140" />
          </symbol>
          <symbol
             style="overflow:visible"
             overflow="visible"
             id="textext-41221897-2">
            <path
               inkscape:connector-curvature="0"
               style="stroke:none"
               d=""
               id="path7143" />
          </symbol>
          <symbol
             style="overflow:visible"
             overflow="visible"
             id="textext-41221897-3">
            <path
               inkscape:connector-curvature="0"
               style="stroke:none"
               d="m 2.265625,-4.359375 c 0,-0.109375 -0.09375,-0.265625 -0.28125,-0.265625 -0.1875,0 -0.390625,0.1875 -0.390625,0.390625 0,0.109375 0.078125,0.265625 0.28125,0.265625 0.1875,0 0.390625,-0.203125 0.390625,-0.390625 z M 0.84375,-0.8125 c -0.03125,0.09375 -0.0625,0.171875 -0.0625,0.296875 0,0.328125 0.265625,0.578125 0.65625,0.578125 0.6875,0 1,-0.953125 1,-1.0625 0,-0.09375 -0.09375,-0.09375 -0.109375,-0.09375 -0.09375,0 -0.109375,0.046875 -0.140625,0.125 -0.15625,0.5625 -0.453125,0.84375 -0.734375,0.84375 -0.140625,0 -0.171875,-0.09375 -0.171875,-0.25 0,-0.15625 0.046875,-0.28125 0.109375,-0.4375 C 1.46875,-1 1.546875,-1.1875 1.609375,-1.375 1.671875,-1.546875 1.9375,-2.171875 1.953125,-2.265625 1.984375,-2.328125 2,-2.40625 2,-2.484375 2,-2.8125 1.71875,-3.078125 1.34375,-3.078125 0.640625,-3.078125 0.328125,-2.125 0.328125,-2 c 0,0.078125 0.09375,0.078125 0.125,0.078125 0.09375,0 0.09375,-0.03125 0.125,-0.109375 C 0.75,-2.625 1.0625,-2.875 1.3125,-2.875 c 0.109375,0 0.171875,0.046875 0.171875,0.234375 0,0.171875 -0.03125,0.265625 -0.203125,0.703125 z"
               id="path7146" />
          </symbol>
        </g>
      </defs>
      <g
         id="textext-41221897-4">
        <g
           style="fill:#000000;fill-opacity:1"
           id="g7149">
          <use
             height="1052.3622"
             width="744.09448"
             xlink:href="#textext-41221897-1"
             x="223.43201"
             y="134.765"
             id="use7151" />
        </g>
        <g
           style="fill:#000000;fill-opacity:1"
           id="g7153">
          <use
             height="1052.3622"
             width="744.09448"
             xlink:href="#textext-41221897-3"
             x="229.172"
             y="136.259"
             id="use7155" />
        </g>
      </g>
    </g>
    <g
       id="g3195"
       ns0:preamble=""
       ns0:text="$\\lambda_1$"
       transform="matrix(2.2490975,0,0,2.2731037,-72.609089,-99.90041)">
      <defs
         id="defs3197">
        <g
           id="g3199">
          <symbol
             id="textext-eeee38e1-0"
             overflow="visible"
             style="overflow:visible">
            <path
               id="path3202"
               d=""
               style="stroke:none"
               inkscape:connector-curvature="0" />
          </symbol>
          <symbol
             id="textext-eeee38e1-1"
             overflow="visible"
             style="overflow:visible">
            <path
               id="path3205"
               d="m 3.5625,-2.90625 c 0.40625,1.046875 0.890625,2.5625 1.046875,2.796875 0.15625,0.21875 0.25,0.21875 0.53125,0.21875 l 0.21875,0 c 0.09375,-0.015625 0.109375,-0.0625 0.109375,-0.09375 0,-0.03125 -0.03125,-0.0625 -0.0625,-0.09375 C 5.3125,-0.1875 5.25,-0.34375 5.1875,-0.53125 L 3.15625,-6.203125 c -0.21875,-0.578125 -0.75,-0.71875 -1.21875,-0.71875 -0.046875,0 -0.1875,0 -0.1875,0.109375 0,0.078125 0.078125,0.109375 0.09375,0.109375 C 2.171875,-6.65625 2.25,-6.59375 2.5,-5.90625 l 0.953125,2.703125 -2.75,2.734375 c -0.109375,0.125 -0.171875,0.171875 -0.171875,0.3125 0,0.171875 0.140625,0.28125 0.296875,0.28125 0.15625,0 0.25,-0.109375 0.328125,-0.203125 z"
               style="stroke:none"
               inkscape:connector-curvature="0" />
          </symbol>
          <symbol
             id="textext-eeee38e1-2"
             overflow="visible"
             style="overflow:visible">
            <path
               id="path3208"
               d=""
               style="stroke:none"
               inkscape:connector-curvature="0" />
          </symbol>
          <symbol
             id="textext-eeee38e1-3"
             overflow="visible"
             style="overflow:visible">
            <path
               id="path3211"
               d="m 2.328125,-4.4375 c 0,-0.1875 0,-0.1875 -0.203125,-0.1875 -0.453125,0.4375 -1.078125,0.4375 -1.359375,0.4375 l 0,0.25 c 0.15625,0 0.625,0 1,-0.1875 l 0,3.546875 c 0,0.234375 0,0.328125 -0.6875,0.328125 l -0.265625,0 0,0.25 c 0.125,0 0.984375,-0.03125 1.234375,-0.03125 0.21875,0 1.09375,0.03125 1.25,0.03125 l 0,-0.25 -0.265625,0 c -0.703125,0 -0.703125,-0.09375 -0.703125,-0.328125 z"
               style="stroke:none"
               inkscape:connector-curvature="0" />
          </symbol>
        </g>
      </defs>
      <g
         id="textext-eeee38e1-4">
        <g
           id="g3214"
           style="fill:#000000;fill-opacity:1">
          <use
             id="use3216"
             y="134.765"
             x="223.43201"
             xlink:href="#textext-eeee38e1-1"
             width="744.09448"
             height="1052.3622" />
        </g>
        <g
           id="g3218"
           style="fill:#000000;fill-opacity:1">
          <use
             id="use3220"
             y="136.259"
             x="229.244"
             xlink:href="#textext-eeee38e1-3"
             width="744.09448"
             height="1052.3622" />
        </g>
      </g>
    </g>
  </g>
</svg>
