<?xml version="1.0" encoding="UTF-8" standalone="no"?>
<!-- Created with Inkscape (http://www.inkscape.org/) -->

<svg
   xmlns:dc="http://purl.org/dc/elements/1.1/"
   xmlns:cc="http://creativecommons.org/ns#"
   xmlns:rdf="http://www.w3.org/1999/02/22-rdf-syntax-ns#"
   xmlns:svg="http://www.w3.org/2000/svg"
   xmlns="http://www.w3.org/2000/svg"
   xmlns:sodipodi="http://sodipodi.sourceforge.net/DTD/sodipodi-0.dtd"
   xmlns:inkscape="http://www.inkscape.org/namespaces/inkscape"
   width="744.09448819"
   height="1052.3622047"
   id="svg2"
   version="1.1"
   inkscape:version="0.48.3.1 r9886"
   sodipodi:docname="flume_slice.svg">
  <defs
     id="defs4" />
  <sodipodi:namedview
     id="base"
     pagecolor="#ffffff"
     bordercolor="#666666"
     borderopacity="1.0"
     inkscape:pageopacity="0.0"
     inkscape:pageshadow="2"
     inkscape:zoom="1.979899"
     inkscape:cx="393.48236"
     inkscape:cy="852.99977"
     inkscape:document-units="px"
     inkscape:current-layer="layer1"
     showgrid="false"
     inkscape:window-width="1920"
     inkscape:window-height="1014"
     inkscape:window-x="0"
     inkscape:window-y="33"
     inkscape:window-maximized="1" />
  <metadata
     id="metadata7">
    <rdf:RDF>
      <cc:Work
         rdf:about="">
        <dc:format>image/svg+xml</dc:format>
        <dc:type
           rdf:resource="http://purl.org/dc/dcmitype/StillImage" />
        <dc:title></dc:title>
      </cc:Work>
    </rdf:RDF>
  </metadata>
  <g
     inkscape:label="Layer 1"
     inkscape:groupmode="layer"
     id="layer1">
    <path
       style="fill:none;stroke:#000000;stroke-width:1px;stroke-linecap:butt;stroke-linejoin:miter;stroke-opacity:1"
       d="M 85.035895,145.93361 C 133.84542,145.69552 185.47619,145.53592 235,145.21933 c 34.76726,-1.21046 55.17857,-4.70238 87.85714,-9.64286 41.96035,-7.43753 49.04762,-7.7381 73.57143,-10.35715 29.79358,-1.68567 55.29055,-2.00766 78.57143,1.42858 20.57038,3.0573 38.8436,7.91939 52.85714,15.71428 7.15729,4.18167 9.22237,5.72496 12.45608,7.9846 6.97404,4.87331 22.13668,15.04817 28.97249,25.58683 3.28604,5.06655 8.15244,12.3369 10.71429,24.28571 0.96518,4.28572 0.61871,8.57143 0.71429,12.85715 l -495.000004,2.14285"
       id="path3020"
       inkscape:connector-curvature="0"
       sodipodi:nodetypes="ccccccscccc" />
  </g>
</svg>
